HIERARCHY
ROOT Hips
{
	OFFSET 0.000000 71.427986 0.000000
	CHANNELS 6 Xposition Yposition Zposition Xrotation Yrotation Zrotation
	JOINT Pelvis
	{
		OFFSET 0.000000 0.000000 0.000000
		CHANNELS 3 Xrotation Yrotation Zrotation
		JOINT LeftUpLeg
		{
			OFFSET 6.797100 -2.508499 -1.318700
			CHANNELS 3 Xrotation Yrotation Zrotation
			JOINT LeftLeg
			{
				OFFSET 0.069008 -29.241863 0.690200
				CHANNELS 3 Xrotation Yrotation Zrotation
				JOINT LeftFoot
				{
					OFFSET -0.069008 -29.568123 -0.266800
					CHANNELS 3 Xrotation Yrotation Zrotation
					JOINT LeftToeBase
					{
						OFFSET 3.145500 -8.631000 16.059900
						CHANNELS 3 Xrotation Yrotation Zrotation
						End Site
						{
							OFFSET 0.000000 18.501587 0.000000
						}
					}
				}
			}
			JOINT Left_ShortSleeve
			{
				OFFSET 0.265923 -10.480953 1.153800
				CHANNELS 3 Xrotation Yrotation Zrotation
				End Site
				{
					OFFSET 1.725763 19.823879 0.000000
				}
			}
		}
		JOINT RightUpLeg
		{
			OFFSET -6.797100 -2.508499 -1.318700
			CHANNELS 3 Xrotation Yrotation Zrotation
			JOINT RightLeg
			{
				OFFSET -0.082453 -29.241932 0.688000
				CHANNELS 3 Xrotation Yrotation Zrotation
				JOINT RightFoot
				{
					OFFSET 0.082453 -29.568058 -0.264600
					CHANNELS 3 Xrotation Yrotation Zrotation
					JOINT RightToeBase
					{
						OFFSET -3.115300 -8.682800 16.113400
						CHANNELS 3 Xrotation Yrotation Zrotation
						End Site
						{
							OFFSET 0.000000 18.567114 0.000000
						}
					}
				}
			}
			JOINT Right_ShortSleeve
			{
				OFFSET -0.265923 -10.480953 1.153800
				CHANNELS 3 Xrotation Yrotation Zrotation
				End Site
				{
					OFFSET -1.725766 19.823910 0.000000
				}
			}
		}
	}
	JOINT Spine
	{
		OFFSET 0.000000 13.368103 0.470500
		CHANNELS 3 Xrotation Yrotation Zrotation
		JOINT Spine1
		{
			OFFSET 0.147000 13.837402 0.538800
			CHANNELS 3 Xrotation Yrotation Zrotation
			JOINT Spine2
			{
				OFFSET 0.168000 16.242897 -1.435500
				CHANNELS 3 Xrotation Yrotation Zrotation
				JOINT Neck
				{
					OFFSET 0.217200 18.631500 -1.679100
					CHANNELS 3 Xrotation Yrotation Zrotation
					JOINT Head
					{
						OFFSET 0.000000 6.599396 1.385900
						CHANNELS 3 Xrotation Yrotation Zrotation
						JOINT Hat
						{
							OFFSET -0.532200 27.220596 -10.096100
							CHANNELS 3 Xrotation Yrotation Zrotation
							End Site
							{
								OFFSET 0.000000 22.029861 0.000000
							}
						}
						JOINT HairD
						{
							OFFSET -10.777400 17.437393 -1.325900
							CHANNELS 3 Xrotation Yrotation Zrotation
							JOINT HairD1
							{
								OFFSET -3.290299 -11.051193 1.062200
								CHANNELS 3 Xrotation Yrotation Zrotation
								End Site
								{
									OFFSET 0.000000 11.579437 0.000000
								}
							}
						}
						JOINT HairB
						{
							OFFSET -10.777400 17.437393 1.467900
							CHANNELS 3 Xrotation Yrotation Zrotation
							JOINT HairB1
							{
								OFFSET -1.561200 -12.956299 3.590200
								CHANNELS 3 Xrotation Yrotation Zrotation
								End Site
								{
									OFFSET 0.000000 13.534866 0.000000
								}
							}
						}
						JOINT HairA
						{
							OFFSET 9.713100 17.437393 1.467900
							CHANNELS 3 Xrotation Yrotation Zrotation
							JOINT HairA1
							{
								OFFSET 1.561200 -12.956299 3.590200
								CHANNELS 3 Xrotation Yrotation Zrotation
								End Site
								{
									OFFSET 0.000000 13.534866 0.000000
								}
							}
						}
						JOINT HairC
						{
							OFFSET 9.713100 17.437393 -1.325900
							CHANNELS 3 Xrotation Yrotation Zrotation
							JOINT HairC1
							{
								OFFSET 3.290300 -11.051193 1.062200
								CHANNELS 3 Xrotation Yrotation Zrotation
								End Site
								{
									OFFSET 0.000000 11.579437 0.000000
								}
							}
						}
					}
				}
				JOINT LeftShoulder
				{
					OFFSET 5.101800 15.108002 -2.763700
					CHANNELS 3 Xrotation Yrotation Zrotation
					JOINT LeftArm
					{
						OFFSET 9.825497 2.506317 -1.597400
						CHANNELS 3 Xrotation Yrotation Zrotation
						JOINT LeftForeArm
						{
							OFFSET 21.966244 0.000000 0.000000
							CHANNELS 3 Xrotation Yrotation Zrotation
							JOINT LeftHand
							{
								OFFSET 33.879036 0.000000 0.000000
								CHANNELS 3 Xrotation Yrotation Zrotation
								JOINT LeftHandThumb1
								{
									OFFSET 6.715286 -2.359680 3.363841
									CHANNELS 3 Xrotation Yrotation Zrotation
									JOINT LeftHandThumb2
									{
										OFFSET 2.507072 -1.447464 1.447461
										CHANNELS 3 Xrotation Yrotation Zrotation
										JOINT LeftHandThumb3
										{
											OFFSET 2.898338 -1.673355 1.673357
											CHANNELS 3 Xrotation Yrotation Zrotation
											End Site
											{
												OFFSET -0.295959 3.727692 -0.131651
											}
										}
									}
								}
								JOINT LeftHandIndex1
								{
									OFFSET 14.190811 -0.254547 3.840278
									CHANNELS 3 Xrotation Yrotation Zrotation
									JOINT LeftHandIndex2
									{
										OFFSET 3.551727 0.000000 -0.000000
										CHANNELS 3 Xrotation Yrotation Zrotation
										JOINT LeftHandIndex3
										{
											OFFSET 2.894196 0.000000 0.000000
											CHANNELS 3 Xrotation Yrotation Zrotation
											End Site
											{
												OFFSET -1.000603 2.690872 0.366626
											}
										}
									}
								}
								JOINT LeftHandMiddle1
								{
									OFFSET 13.776489 0.000000 0.000000
									CHANNELS 3 Xrotation Yrotation Zrotation
									JOINT LeftHandMiddle2
									{
										OFFSET 3.438232 0.000000 0.000000
										CHANNELS 3 Xrotation Yrotation Zrotation
										JOINT LeftHandMiddle3
										{
											OFFSET 3.691551 0.000000 0.000000
											CHANNELS 3 Xrotation Yrotation Zrotation
											End Site
											{
												OFFSET -1.082298 3.499527 0.457670
											}
										}
									}
								}
								JOINT LeftHandRing1
								{
									OFFSET 13.966164 -0.268127 -3.067488
									CHANNELS 3 Xrotation Yrotation Zrotation
									JOINT LeftHandRing2
									{
										OFFSET 3.162567 0.000000 0.000000
										CHANNELS 3 Xrotation Yrotation Zrotation
										JOINT LeftHandRing3
										{
											OFFSET 3.324348 0.000000 0.000000
											CHANNELS 3 Xrotation Yrotation Zrotation
											End Site
											{
												OFFSET -0.861900 3.184998 0.405154
											}
										}
									}
								}
								JOINT LeftHandPinky1
								{
									OFFSET 13.131393 -0.168503 -5.746925
									CHANNELS 3 Xrotation Yrotation Zrotation
									JOINT LeftHandPinky2
									{
										OFFSET 2.849182 0.000000 0.000000
										CHANNELS 3 Xrotation Yrotation Zrotation
										JOINT LeftHandPinky3
										{
											OFFSET 2.805038 0.000000 0.000000
											CHANNELS 3 Xrotation Yrotation Zrotation
											End Site
											{
												OFFSET -0.882500 2.642609 0.325652
											}
										}
									}
								}
							}
							JOINT Left_Sleeve
							{
								OFFSET 6.592125 -0.646545 0.805568
								CHANNELS 3 Xrotation Yrotation Zrotation
								End Site
								{
									OFFSET -0.000179 20.275787 -0.000000
								}
							}
						}
					}
				}
				JOINT RightShoulder
				{
					OFFSET -5.731700 15.108002 -2.763700
					CHANNELS 3 Xrotation Yrotation Zrotation
					JOINT RightArm
					{
						OFFSET -9.825497 2.506317 -1.597400
						CHANNELS 3 Xrotation Yrotation Zrotation
						JOINT RightForeArm
						{
							OFFSET -21.966242 0.000000 0.000000
							CHANNELS 3 Xrotation Yrotation Zrotation
							JOINT RightHand
							{
								OFFSET -33.879032 0.000000 0.000000
								CHANNELS 3 Xrotation Yrotation Zrotation
								JOINT RightHandThumb1
								{
									OFFSET -6.715286 -2.359680 3.363841
									CHANNELS 3 Xrotation Yrotation Zrotation
									JOINT RightHandThumb2
									{
										OFFSET -2.507072 -1.447464 1.447461
										CHANNELS 3 Xrotation Yrotation Zrotation
										JOINT RightHandThumb3
										{
											OFFSET -2.898338 -1.673355 1.673357
											CHANNELS 3 Xrotation Yrotation Zrotation
											End Site
											{
												OFFSET 0.295959 3.727692 -0.131651
											}
										}
									}
								}
								JOINT RightHandIndex1
								{
									OFFSET -14.190811 -0.254547 3.840278
									CHANNELS 3 Xrotation Yrotation Zrotation
									JOINT RightHandIndex2
									{
										OFFSET -3.551727 0.000000 -0.000000
										CHANNELS 3 Xrotation Yrotation Zrotation
										JOINT RightHandIndex3
										{
											OFFSET -2.894196 0.000000 0.000000
											CHANNELS 3 Xrotation Yrotation Zrotation
											End Site
											{
												OFFSET 1.000603 2.690872 0.366626
											}
										}
									}
								}
								JOINT RightHandMiddle1
								{
									OFFSET -13.776489 0.000000 0.000000
									CHANNELS 3 Xrotation Yrotation Zrotation
									JOINT RightHandMiddle2
									{
										OFFSET -3.438232 0.000000 0.000000
										CHANNELS 3 Xrotation Yrotation Zrotation
										JOINT RightHandMiddle3
										{
											OFFSET -3.691551 0.000000 0.000000
											CHANNELS 3 Xrotation Yrotation Zrotation
											End Site
											{
												OFFSET 1.082298 3.499527 0.457670
											}
										}
									}
								}
								JOINT RightHandRing1
								{
									OFFSET -13.966164 -0.268127 -3.067488
									CHANNELS 3 Xrotation Yrotation Zrotation
									JOINT RightHandRing2
									{
										OFFSET -3.162567 0.000000 0.000000
										CHANNELS 3 Xrotation Yrotation Zrotation
										JOINT RightHandRing3
										{
											OFFSET -3.324348 0.000000 0.000000
											CHANNELS 3 Xrotation Yrotation Zrotation
											End Site
											{
												OFFSET 0.861900 3.184998 0.405154
											}
										}
									}
								}
								JOINT RightHandPinky1
								{
									OFFSET -13.131393 -0.168503 -5.746925
									CHANNELS 3 Xrotation Yrotation Zrotation
									JOINT RightHandPinky2
									{
										OFFSET -2.849182 0.000000 0.000000
										CHANNELS 3 Xrotation Yrotation Zrotation
										JOINT RightHandPinky3
										{
											OFFSET -2.805038 0.000000 0.000000
											CHANNELS 3 Xrotation Yrotation Zrotation
											End Site
											{
												OFFSET 0.882500 2.642609 0.325652
											}
										}
									}
								}
							}
							JOINT Right_Sleeve
							{
								OFFSET -6.592125 -0.646545 0.805568
								CHANNELS 3 Xrotation Yrotation Zrotation
								End Site
								{
									OFFSET 0.000179 20.275787 -0.000000
								}
							}
						}
					}
				}
				JOINT Bind_Right_JacketString
				{
					OFFSET -3.534800 11.969597 7.200700
					CHANNELS 3 Xrotation Yrotation Zrotation
					JOINT Bind_Right_JacketString1
					{
						OFFSET -0.319900 -6.102600 2.794100
						CHANNELS 3 Xrotation Yrotation Zrotation
						End Site
						{
							OFFSET 0.000000 6.719452 0.000000
						}
					}
				}
				JOINT Bind_Left_JacketString
				{
					OFFSET 2.904800 11.969597 7.200700
					CHANNELS 3 Xrotation Yrotation Zrotation
					JOINT Bind_Left_JacketString1
					{
						OFFSET 0.364800 -5.904503 3.186800
						CHANNELS 3 Xrotation Yrotation Zrotation
						End Site
						{
							OFFSET 0.000000 6.719513 0.000000
						}
					}
				}
				JOINT HairE
				{
					OFFSET 5.915200 17.612701 -11.592200
					CHANNELS 3 Xrotation Yrotation Zrotation
					JOINT HairE1
					{
						OFFSET 0.289200 -7.171898 -1.284500
						CHANNELS 3 Xrotation Yrotation Zrotation
						End Site
						{
							OFFSET 0.000000 7.291756 0.000000
						}
					}
				}
				JOINT HairF
				{
					OFFSET -0.864800 17.612701 -11.592200
					CHANNELS 3 Xrotation Yrotation Zrotation
					JOINT HairF1
					{
						OFFSET 0.000000 -14.087097 -2.127501
						CHANNELS 3 Xrotation Yrotation Zrotation
						End Site
						{
							OFFSET 0.000000 14.246841 0.000000
						}
					}
				}
				JOINT HairG
				{
					OFFSET -8.087700 17.612701 -11.592200
					CHANNELS 3 Xrotation Yrotation Zrotation
					JOINT HairG1
					{
						OFFSET -0.293600 -6.081398 -0.910100
						CHANNELS 3 Xrotation Yrotation Zrotation
						End Site
						{
							OFFSET 0.000000 6.156120 0.000000
						}
					}
				}
			}
		}
	}
	JOINT Pouch
	{
		OFFSET 0.000000 4.394501 10.847300
		CHANNELS 3 Xrotation Yrotation Zrotation
		End Site
		{
			OFFSET 0.000000 21.880577 0.000000
		}
	}
	JOINT Bag
	{
		OFFSET -13.229000 4.813004 -0.593300
		CHANNELS 3 Xrotation Yrotation Zrotation
		End Site
		{
			OFFSET 0.000000 21.880577 0.000000
		}
	}
	JOINT OccupyGuyFacialAnim_Joint
	{
		OFFSET 1.000000 -70.206398 -1.655000
		CHANNELS 3 Xrotation Yrotation Zrotation
		End Site
		{
			OFFSET 0.000000 21.880577 0.000000
		}
	}
}
MOTION
Frames: 4
Frame Time: 0.033333
-0.496934 60.469704 0.364148 15.500783 -53.415573 11.678736 0.000001 -0.000001 -0.000001 -65.819603 26.153144 42.771696 46.265140 -14.931813 4.318105 0.664137 0.551985 -9.994253 -0.000000 0.000002 0.000000 0.000001 -0.000000 -0.000000 -33.703879 -20.428676 -35.288514 42.297722 -0.659124 -5.458446 -13.837267 -5.333480 30.444626 0.000000 -0.000000 -0.000000 0.000002 -0.000000 -0.000001 7.406297 3.464133 -3.063054 1.209179 1.420676 2.325055 0.209258 1.298846 1.049732 -1.852108 9.789349 -1.570082 -3.710346 23.673091 -4.987620 0.000001 0.000001 -0.000000 0.000001 0.000001 -0.000000 0.000001 0.000001 -0.000000 0.000001 0.000001 -0.000000 -0.000000 -0.000000 0.000000 0.000001 0.000001 -0.000000 -0.000000 -0.000000 0.000000 0.000001 0.000001 -0.000000 0.000001 0.000001 -0.000000 -2.416903 -9.914475 -4.105215 -4.668987 -14.995300 -46.826933 -96.668091 -58.172865 -94.771743 0.027038 -0.377054 -3.261905 4.766492 -0.870669 -14.442467 15.732323 12.674818 8.828583 -0.000003 0.000001 -0.000000 -3.610945 -7.817578 -81.262661 0.005161 -4.388548 -67.459060 0.000001 0.000002 0.000000 -5.483665 2.419564 -86.651038 -0.068346 -4.897295 -76.605503 -0.000000 -0.000000 0.000002 -4.480810 3.914151 -90.412505 -1.097244 -0.675679 -62.310730 -0.000001 -0.000000 0.000002 -8.868651 8.263647 -85.753886 -0.047916 -0.066869 -74.105647 -0.000000 -0.000002 0.000003 -0.000000 -0.000000 -0.000002 -7.387813 -19.317435 2.804091 3.089086 2.300703 51.805110 -16.213846 73.879417 16.738439 -2.716603 27.655228 10.524492 24.918333 -21.323374 30.343054 9.041918 8.262091 -18.001797 -0.000003 -0.000003 0.000001 -0.070689 -3.035214 61.424199 0.006457 4.395167 66.609180 -0.000000 0.000000 0.000004 -1.235415 -0.119469 68.274270 -0.077280 4.902833 84.501885 0.000001 -0.000001 0.000001 0.883167 -4.613431 79.192943 -0.717771 1.136479 73.255780 -0.000002 0.000000 -0.000002 -3.944555 0.099993 86.764788 -0.029790 0.060121 54.415144 -0.000001 0.000001 0.000001 0.000001 -0.000002 0.000001 -0.000001 0.000001 0.000000 -0.000000 -0.000003 0.000001 -0.000001 0.000001 -0.000001 -0.000001 0.000001 -0.000001 -0.000001 0.000001 0.000000 -0.000000 -0.000003 0.000001 -0.000001 0.000001 -0.000001 -0.000001 0.000001 -0.000001 -0.000001 0.000001 0.000000 -0.000000 -0.000003 0.000001 0.000001 -0.000001 -0.000001 0.000001 -0.000001 -0.000001 0.000001 -0.000001 -0.000001 
-0.821286 60.804901 0.189556 13.028525 -53.048379 10.518789 0.000000 0.000001 0.000000 -63.316106 27.741580 42.056774 43.982484 -15.646375 4.090125 1.678890 0.394957 -10.178665 0.000000 -0.000002 -0.000000 0.000001 0.000000 -0.000000 -32.882419 -21.689302 -36.746206 42.025362 0.473946 -5.311173 -14.121151 -5.314266 29.808189 -0.000000 -0.000000 -0.000000 0.000001 -0.000000 -0.000001 10.014081 1.822227 -2.044427 1.468864 0.842647 1.681932 0.647720 0.740582 0.661313 -0.069406 10.680709 -0.818494 -6.519146 25.305386 -6.749109 0.000001 0.000000 -0.000000 0.000001 0.000000 -0.000000 0.000001 0.000000 -0.000001 0.000001 0.000000 -0.000000 0.000001 0.000000 -0.000000 0.000001 0.000000 -0.000000 0.000001 0.000000 -0.000000 0.000001 0.000000 -0.000000 0.000001 0.000000 -0.000000 -0.076746 -5.720032 -3.555799 -8.148352 -18.121784 -42.492533 -96.555891 -62.902135 -93.126043 -0.537338 -0.784463 -3.984845 4.771888 -0.871684 -14.454825 15.739025 12.675170 8.825320 0.000001 -0.000000 -0.000000 -3.619809 -7.820264 -81.306968 0.005163 -4.388536 -67.488362 0.000002 0.000001 -0.000002 -5.487590 2.425197 -86.694457 -0.068373 -4.897309 -76.639872 0.000001 -0.000002 0.000000 -4.480424 3.920083 -90.454873 -1.097520 -0.675329 -62.332177 -0.000001 -0.000001 0.000002 -8.869592 8.274513 -85.789771 -0.047921 -0.066880 -74.138828 -0.000001 0.000001 0.000001 -0.000002 -0.000000 -0.000001 -1.115074 -14.613422 3.617050 -2.285364 2.041563 55.158951 -17.913395 72.725880 18.719653 -1.606089 27.473259 5.632051 24.918333 -21.323376 30.343047 9.041921 8.262096 -18.001802 -0.000002 -0.000001 0.000005 -0.070692 -3.035215 61.424199 0.009566 4.328211 66.609104 0.000003 -0.000001 0.000004 -1.235414 -0.119471 68.274270 -0.077282 4.902842 84.501885 0.000001 0.000000 -0.000002 0.883161 -4.613430 79.192936 -0.717772 1.136475 73.255780 -0.000002 0.000000 -0.000000 -3.944555 0.099989 86.764781 -0.029789 0.060123 54.415144 0.000001 0.000000 -0.000001 0.000001 0.000000 -0.000001 0.000000 0.000000 0.000000 0.000001 -0.000002 0.000001 0.000000 0.000000 0.000001 0.000000 0.000000 0.000001 0.000000 0.000000 0.000000 0.000001 -0.000002 0.000001 0.000000 0.000000 0.000001 0.000000 0.000000 0.000001 0.000000 0.000000 0.000000 0.000001 -0.000002 0.000001 0.000000 0.000001 0.000000 0.000000 0.000001 0.000000 0.000000 0.000001 0.000000 
-1.172883 61.151695 -0.042123 10.748927 -52.677516 9.425541 -0.000000 0.000000 -0.000000 -60.712629 29.190186 41.306959 41.371535 -16.292450 3.771811 2.877157 0.209774 -10.464984 0.000000 0.000002 -0.000000 0.000003 0.000000 0.000002 -32.219737 -23.064666 -38.091781 41.750774 1.637296 -5.196199 -14.418546 -5.296889 29.097627 -0.000000 -0.000000 -0.000000 -0.000002 0.000001 -0.000001 12.513948 0.178535 -1.051823 1.710156 0.272363 1.062236 1.064538 0.190016 0.285478 1.684377 11.776709 -0.147251 -9.067057 26.955265 -8.402180 -0.000000 -0.000001 0.000000 -0.000000 -0.000001 0.000000 -0.000000 -0.000001 0.000000 -0.000000 -0.000001 0.000000 -0.000000 -0.000000 0.000000 -0.000000 -0.000001 0.000000 -0.000000 -0.000000 0.000000 -0.000000 -0.000001 0.000000 -0.000000 -0.000001 0.000000 2.008996 -1.891357 -3.987761 -8.548884 -21.258699 -38.794453 -97.399385 -67.490404 -91.292998 -0.826814 -3.050851 -4.481609 4.787393 -0.874649 -14.490368 15.758312 12.676170 8.815954 0.000001 0.000002 0.000001 -3.645266 -7.827895 -81.434351 0.005120 -4.388555 -67.572585 0.000001 0.000000 -0.000000 -5.498890 2.441468 -86.819320 -0.068468 -4.897326 -76.738651 -0.000001 0.000001 0.000002 -4.479265 3.937115 -90.576559 -1.098343 -0.674265 -62.393833 0.000000 -0.000001 0.000002 -8.872237 8.305716 -85.892907 -0.047934 -0.066920 -74.234184 -0.000001 0.000000 0.000001 0.000001 0.000000 -0.000001 3.369956 -8.099876 3.519723 -4.502860 -1.389327 57.504483 -21.685070 76.225000 23.226743 0.012666 24.620100 -0.716050 24.918330 -21.323374 30.343051 9.041919 8.262095 -18.001802 0.000001 -0.000002 0.000001 -0.070695 -3.035216 61.424199 0.011970 4.277059 66.609357 -0.000002 -0.000000 0.000000 -1.235415 -0.119472 68.274264 -0.077283 4.902835 84.501885 -0.000002 -0.000001 0.000001 0.883156 -4.613431 79.192936 -0.717772 1.136479 73.255773 0.000001 -0.000001 -0.000001 -3.944562 0.099989 86.764781 -0.029790 0.060120 54.415144 0.000001 0.000001 -0.000003 0.000002 0.000001 -0.000002 -0.000001 -0.000000 -0.000000 -0.000000 0.000003 -0.000002 -0.000001 -0.000000 0.000001 -0.000001 -0.000000 0.000001 -0.000001 -0.000000 -0.000000 -0.000000 0.000003 -0.000002 -0.000001 -0.000000 0.000001 -0.000001 -0.000000 0.000001 -0.000001 -0.000000 -0.000000 -0.000000 0.000003 -0.000002 -0.000000 0.000000 -0.000000 -0.000000 0.000000 -0.000000 -0.000000 0.000000 -0.000000 
-1.547956 61.504944 -0.320563 8.620077 -52.330546 8.392077 0.000000 0.000002 -0.000000 -58.475428 31.009861 40.970285 38.485797 -17.497148 3.395354 4.295101 0.103712 -10.642629 0.000000 -0.000000 -0.000000 -0.000003 0.000000 -0.000000 -31.704526 -24.535593 -39.371495 41.422597 2.974728 -5.104022 -14.630422 -5.256686 28.354340 -0.000000 -0.000000 -0.000000 0.000000 -0.000000 0.000001 14.960155 -1.479145 -0.076789 1.936445 -0.296339 0.456383 1.465266 -0.358960 -0.084028 3.415793 12.735023 0.531659 -11.399655 28.645984 -9.998640 0.000001 0.000000 -0.000000 0.000001 0.000000 -0.000000 0.000001 0.000000 -0.000000 0.000001 0.000000 -0.000000 0.000001 0.000001 -0.000000 0.000001 0.000000 -0.000000 0.000001 0.000001 -0.000000 0.000001 0.000000 -0.000000 0.000001 0.000000 -0.000000 4.064475 1.594603 -4.941189 -7.526203 -24.162586 -34.896522 -97.502282 -71.685561 -88.289867 -0.968056 -6.089350 -4.461488 4.812002 -0.879347 -14.546776 15.788901 12.677714 8.801081 0.000002 0.000002 0.000001 -3.685702 -7.839791 -81.636531 0.005068 -4.388569 -67.706183 0.000001 0.000002 -0.000003 -5.516613 2.467382 -87.017491 -0.068598 -4.897396 -76.895363 0.000000 0.000001 -0.000001 -4.477227 3.964112 -90.769703 -1.099657 -0.672614 -62.491675 -0.000001 0.000001 -0.000001 -8.876160 8.355282 -86.056641 -0.047972 -0.066979 -74.385480 0.000000 -0.000002 0.000003 0.000001 0.000000 0.000001 5.095188 -1.567639 2.859964 -3.959995 -4.745088 58.627776 -20.623345 82.988916 22.496353 0.670540 19.617306 -5.884934 24.918332 -21.323372 30.343051 9.041918 8.262095 -18.001807 -0.000002 -0.000001 0.000004 -0.070695 -3.035216 61.424199 0.013695 4.240136 66.609876 0.000003 -0.000001 -0.000002 -1.235416 -0.119474 68.274270 -0.077284 4.902836 84.501885 0.000002 -0.000001 0.000001 0.883156 -4.613430 79.192936 -0.717773 1.136476 73.255773 0.000003 -0.000002 0.000002 -3.944561 0.099989 86.764781 -0.029791 0.060123 54.415144 -0.000000 0.000000 0.000001 0.000001 0.000003 -0.000003 -0.000000 0.000002 -0.000000 -0.000002 -0.000002 0.000000 -0.000000 0.000002 -0.000000 -0.000000 0.000002 -0.000000 -0.000000 0.000002 -0.000000 -0.000002 -0.000002 0.000000 -0.000000 0.000002 -0.000000 -0.000000 0.000002 -0.000000 -0.000000 0.000002 -0.000000 -0.000002 -0.000002 0.000000 0.000000 0.000002 -0.000000 0.000000 0.000002 -0.000000 0.000000 0.000002 -0.000000 
